#!OML:ASF H:\Terrain\Patient Classification 1\Terrain2\Thursday\justin.ASF
:FULLY-SPECIFIED
:DEGREES
3229
root -4.93334 20.1407 -11.3337 1405.67 84.5833 -37.2771
lowerback 10.5136 1.36936 0.830917
upperback 2.01244 2.09924 2.487
thorax -3.85955 1.07673 1.82942
lowerneck -15.1389 -2.6026 -8.47596
upperneck 34.5385 -1.55478 4.19009
head 14.5693 -0.827922 3.05716
rclavicle 1.72943e-014 2.14687e-014
rhumerus -29.3219 -3.75099 -83.5932
rradius 33.9732
rwrist -12.2206
rhand -20.4663 11.6864
rfingers 7.12502
rthumb 5.88964 -18.2118
lclavicle 1.72943e-014 2.14687e-014
lhumerus -33.1812 4.80793 85.7026
lradius 30.0751
lwrist 1.49771
lhand -16.8862 21.8159
lfingers 7.12502
lthumb 9.34518 51.5887
rfemur -17.4736 -7.13882 20.7394
rtibia 71.8743
rfoot 12.3339 -3.52283
rtoes 15.7248
lfemur -24.3418 1.18544 -20.7515
ltibia 39.5157
lfoot -12.7007 -10.7889
ltoes 21.0947
3230
root -4.82889 20.2003 -11.3336 1408.4 85.0596 -34.1727
lowerback 10.7102 1.26012 0.222561
upperback 2.03091 1.88775 2.45396
thorax -3.96125 0.978749 2.16348
lowerneck -14.9337 -2.51984 -8.11892
upperneck 34.4255 -1.34506 3.57838
head 14.4456 -0.773208 2.76982
rclavicle -1.03368e-014 -1.74931e-014
rhumerus -29.353 -3.61964 -83.5788
rradius 34.2179
rwrist -12.6485
rhand -20.9147 12.1031
rfingers 7.12502
rthumb 5.45667 -17.8066
lclavicle -1.03368e-014 -1.74931e-014
lhumerus -33.2109 4.34618 85.883
lradius 30.5171
lwrist 2.72941
lhand -17.5845 22.1125
lfingers 7.12502
lthumb 8.67128 51.9144
rfemur -18.6562 -7.41724 20.2208
rtibia 74.225
rfoot 10.5867 -3.2498
rtoes 14.8419
lfemur -22.6181 1.12327 -21.3517
ltibia 37.7725
lfoot -12.4103 -10.7599
ltoes 20.0233
3231
root -4.72175 20.2665 -11.3394 1413.08 85.5359 -29.1035
lowerback 10.8009 1.23401 -0.266179
upperback 2.12607 1.78655 2.24593
thorax -3.91596 0.93215 2.23572
lowerneck -14.924 -2.5711 -7.90103
upperneck 34.5521 -1.4434 3.47791
head 14.5052 -0.799351 2.67829
rclavicle -8.64713e-015 -1.59028e-014
rhumerus -29.4017 -3.92759 -83.463
rradius 34.665
rwrist -13.0327
rhand -21.2239 12.0883
rfingers 7.12502
rthumb 5.15812 -17.829
lclavicle -8.64713e-015 -1.59028e-014
lhumerus -33.0046 3.90566 85.8505
lradius 30.7677
lwrist 3.23938
lhand -17.9271 22.0903
lfingers 7.12502
lthumb 8.34072 51.9056
rfemur -19.9503 -7.70097 19.4603
rtibia 76.4798
rfoot 8.98127 -2.94003
rtoes 15.4891
lfemur -20.8543 0.743096 -22.0454
ltibia 36.0381
lfoot -12.0485 -10.4957
ltoes 20.9465
3232
root -4.61703 20.3271 -11.3459 1415.67 85.7228 -26.4343
lowerback 10.6372 1.26398 -0.357709
upperback 2.17525 1.8055 2.09655
thorax -3.77279 0.940253 2.13241
lowerneck -15.1505 -2.69264 -8.02556
upperneck 34.873 -1.67365 3.82828
head 14.7281 -0.865947 2.82006
rclavicle 5.26779e-015 1.51076e-014
rhumerus -29.289 -4.5603 -83.2377
rradius 34.9057
rwrist -12.9029
rhand -21.7578 11.9436
rfingers 7.12502
rthumb 4.64267 -17.9856
lclavicle 5.26779e-015 1.51076e-014
lhumerus -32.5823 3.83021 85.6252
lradius 30.8102
lwrist 3.10222
lhand -17.4876 22.021
lfingers 7.12502
lthumb 8.76479 51.819
rfemur -21.5723 -7.76542 19.1374
rtibia 78.5568
rfoot 7.48909 -3.08763
rtoes 16.7427
lfemur -19.443 0.312398 -22.3885
ltibia 34.3395
lfoot -11.7736 -9.86906
ltoes 20.7829
3233
root -4.51741 20.3768 -11.3535 1415.86 85.8601 -26.2237
lowerback 10.4998 1.1573 -0.407101
upperback 2.14074 1.65837 2.13138
thorax -3.72904 0.867551 2.21909
lowerneck -15.1825 -2.64869 -8.28111
upperneck 35.0524 -1.59349 4.05504
head 14.8193 -0.834003 2.98089
rclavicle -1.05356e-014 -5.56597e-015
rhumerus -29.1723 -4.49655 -83.0896
rradius 34.991
rwrist -12.7941
rhand -22.0339 12.0633
rfingers 7.12502
rthumb 4.37604 -17.8715
lclavicle -1.05356e-014 -5.56597e-015
lhumerus -32.3635 4.58861 85.2311
lradius 30.9183
lwrist 2.40711
lhand -16.6974 21.7932
lfingers 7.12502
lthumb 9.52735 51.5578
rfemur -23.2204 -7.86704 19.0853
rtibia 80.3898
rfoot 6.15235 -3.08662
rtoes 17.258
lfemur -18.1903 0.244958 -22.5609
ltibia 32.7045
lfoot -11.6686 -9.46366
ltoes 18.8662
3234
root -4.41866 20.4186 -11.3629 1414.77 86.0757 -27.1297
lowerback 10.5462 0.907719 -0.598134
upperback 2.08966 1.31652 2.31529
thorax -3.80164 0.702345 2.56511
lowerneck -15.1313 -2.49909 -8.41365
upperneck 35.28 -1.26218 3.91522
head 14.8899 -0.728992 3.00987
rclavicle 5.76476e-015 -3.37934e-014
rhumerus -29.2061 -3.83555 -82.94
rradius 35.0956
rwrist -13.0344
rhand -21.4319 12.2072
rfingers 7.12502
rthumb 4.95734 -17.7148
lclavicle 5.76476e-015 -3.37934e-014
lhumerus -32.4584 5.20678 85.1306
lradius 31.3013
lwrist 2.6601
lhand -16.9083 21.7318
lfingers 7.12502
lthumb 9.32386 51.5056
rfemur -24.5673 -8.09628 19.0772
rtibia 81.9184
rfoot 4.75881 -3.08394
rtoes 15.8096
lfemur -16.8175 0.019111 -22.6664
ltibia 31.1406
lfoot -11.3805 -9.29872
ltoes 20.1611
3235
root -4.31725 20.4554 -11.3746 1416.3 86.3453 -25.4255
lowerback 10.5871 0.767473 -0.768624
upperback 2.03731 1.11218 2.33265
thorax -3.87195 0.603527 2.70752
lowerneck -15.1804 -2.47893 -8.40278
upperneck 35.5938 -1.12887 3.70928
head 15.0406 -0.698433 2.95629
rclavicle -4.87022e-015 -4.49253e-014
rhumerus -29.2835 -3.51521 -82.7784
rradius 35.2601
rwrist -13.4928
rhand -21.3746 12.239
rfingers 7.12502
rthumb 5.01262 -17.6817
lclavicle -4.87022e-015 -4.49253e-014
lhumerus -32.5089 4.82566 85.3322
lradius 31.7598
lwrist 3.98121
lhand -17.9529 22.0573
lfingers 7.12502
lthumb 8.31582 51.8736
rfemur -25.7999 -8.33342 18.8699
rtibia 83.2026
rfoot 3.21552 -3.19687
rtoes 14.0861
lfemur -15.4443 -0.514789 -22.9735
ltibia 29.6036
lfoot -10.9122 -8.95237
ltoes 22.2759
3236
root -4.21162 20.4906 -11.3839 1425.64 86.5992 -16.0224
lowerback 10.4248 0.797192 -1.07805
upperback 2.01606 1.09888 2.04449
thorax -3.80326 0.596102 2.58465
lowerneck -15.1124 -2.56985 -8.50106
upperneck 35.6335 -1.2913 3.86576
head 15.0596 -0.758031 3.0142
rclavicle 5.46658e-015 -1.59028e-015
rhumerus -29.3238 -3.79215 -82.6932
rradius 35.4656
rwrist -13.7958
rhand -21.8643 12.2303
rfingers 7.12502
rthumb 4.53978 -17.7011
lclavicle 5.46658e-015 -1.59028e-015
lhumerus -32.3336 4.1443 85.3696
lradius 32.0809
lwrist 5.00897
lhand -18.5719 22.5481
lfingers 7.12502
lthumb 7.71836 52.3873
rfemur -27.1196 -8.45921 18.1089
rtibia 84.3559
rfoot 1.63742 -2.65582
rtoes 14.915
lfemur -14.1608 -1.05742 -23.7527
ltibia 28.0958
lfoot -10.5638 -8.35142
ltoes 22.7349
3237
root -4.1067 20.5245 -11.3844 1436.58 86.7036 -4.93955
lowerback 10.2794 0.813744 -1.59654
upperback 2.06183 1.05305 1.83607
thorax -3.67734 0.575195 2.66804
lowerneck -15.0833 -2.58176 -8.72308
upperneck 35.6024 -1.34233 4.13329
head 15.0465 -0.773033 3.15707
rclavicle -4.07509e-015 1.98785e-015
rhumerus -29.3362 -3.77195 -82.6136
rradius 35.7266
rwrist -14.0108
rhand -21.5404 12.0637
rfingers 7.12502
rthumb 4.85255 -17.8607
lclavicle -4.07509e-015 1.98785e-015
lhumerus -32.0877 3.84321 85.3658
lradius 32.3723
lwrist 5.76576
lhand -18.7458 22.7386
lfingers 7.12502
lthumb 7.55053 52.5838
rfemur -28.3966 -8.87325 17.2506
rtibia 85.3649
rfoot 0.112798 -1.74702
rtoes 16.8795
lfemur -12.8148 -1.59517 -24.5309
ltibia 26.613
lfoot -10.4042 -7.68224
ltoes 22.0587
3238
root -4.00021 20.5621 -11.3819 1437.24 86.6336 -4.09483
lowerback 10.2246 0.77922 -1.73408
upperback 2.0694 0.99577 1.89906
thorax -3.63899 0.548082 2.81982
lowerneck -15.0241 -2.53272 -8.83217
upperneck 35.6898 -1.22807 4.12716
head 15.0669 -0.73942 3.19658
rclavicle 1.2921e-015 3.18055e-015
rhumerus -29.4191 -3.27714 -82.5273
rradius 35.9586
rwrist -14.0754
rhand -21.0152 11.8903
rfingers 7.12502
rthumb 5.35968 -18.0219
lclavicle 1.2921e-015 3.18055e-015
lhumerus -32.0329 3.86386 85.3455
lradius 32.6853
lwrist 6.23169
lhand -18.7935 22.6351
lfingers 7.12502
lthumb 7.50444 52.482
rfemur -29.6295 -9.43056 17.2577
rtibia 86.0964
rfoot -1.29234 -1.30066
rtoes 14.7368
lfemur -11.4575 -1.79979 -24.6191
ltibia 25.1916
lfoot -10.1805 -7.30345
ltoes 19.0257
3239
root -3.88789 20.5956 -11.3844 1437.07 86.6109 -4.2062
lowerback 10.007 0.698902 -1.82546
upperback 2.01204 0.884108 1.99858
thorax -3.57404 0.493073 2.99161
lowerneck -14.8359 -2.4881 -8.89579
upperneck 35.7354 -1.08037 3.94241
head 15.0339 -0.708809 3.15523
rclavicle 9.74045e-015 1.03368e-014
rhumerus -29.4582 -3.25751 -82.1972
rradius 35.9136
rwrist -13.2273
rhand -20.1695 12.43
rfingers 7.12502
rthumb 6.17616 -17.46
lclavicle 9.74045e-015 1.03368e-014
lhumerus -32.1328 4.30021 85.1368
lradius 32.9764
lwrist 5.99226
lhand -18.5653 22.4236
lfingers 7.12502
lthumb 7.72475 52.2625
rfemur -30.9135 -9.32767 17.5109
rtibia 86.6024
rfoot -2.40621 -1.44512
rtoes 10.9075
lfemur -10.2987 -1.9458 -24.6666
ltibia 23.8996
lfoot -9.78306 -7.11471
ltoes 17.1205
3240
root -3.7803 20.6148 -11.3894 1441.72 86.6302 0.443007
lowerback 9.80195 0.673787 -2.01611
upperback 1.9732 0.82857 1.95115
thorax -3.49895 0.465414 3.05831
lowerneck -14.7291 -2.48073 -9.01466
upperneck 35.7165 -1.03241 3.92265
head 14.9985 -0.705956 3.17464
rclavicle 7.95139e-016 -1.19271e-015
rhumerus -29.4554 -3.43746 -82.0336
rradius 35.9339
rwrist -13.7672
rhand -20.522 13.1293
rfingers 7.12502
rthumb 5.83587 -16.7703
lclavicle 7.95139e-016 -1.19271e-015
lhumerus -32.082 4.47133 85.0109
lradius 33.2743
lwrist 5.73747
lhand -18.2409 22.2555
lfingers 7.12502
lthumb 8.03786 52.0826
rfemur -32.2189 -8.64606 17.4594
rtibia 86.9796
rfoot -3.3336 -1.86358
rtoes 10.8233
lfemur -9.25066 -2.26977 -25.0554
ltibia 22.6955
lfoot -9.70438 -6.78118
ltoes 18.1069
3241
root -3.67947 20.6329 -11.3957 1445.43 86.7275 4.19601
lowerback 9.72314 0.711428 -1.97035
upperback 1.93551 0.875158 1.7892
thorax -3.49455 0.4866 2.85776
lowerneck -14.5881 -2.58146 -8.83839
upperneck 35.6395 -1.255 3.92385
head 14.9449 -0.774443 3.10346
rclavicle -2.88238e-015 -1.90833e-014
rhumerus -29.5279 -4.07126 -81.8606
rradius 36.0048
rwrist -13.825
rhand -20.7241 13.0567
rfingers 7.12502
rthumb 5.6407 -16.8482
lclavicle -2.88238e-015 -1.90833e-014
lhumerus -31.8756 3.71698 85.111
lradius 33.6085
lwrist 6.40182
lhand -18.435 22.5031
lfingers 7.12502
lthumb 7.85051 52.3374
rfemur -33.432 -8.31014 17.3698
rtibia 87.185
rfoot -4.47771 -1.91545
rtoes 12.0996
lfemur -8.18063 -2.66746 -25.3683
ltibia 21.4674
lfoot -9.74914 -6.56341
ltoes 20.1243
3242
root -3.57792 20.6507 -11.3986 1450.74 86.9312 9.54047
lowerback 9.58693 0.637059 -2.1255
upperback 1.91383 0.75512 1.6584
thorax -3.43382 0.42644 2.82503
lowerneck -14.4884 -2.62693 -8.48083
upperneck 35.615 -1.36531 3.70599
head 14.9121 -0.801904 2.9286
rclavicle 2.48481e-015 3.18055e-015
rhumerus -29.5456 -4.21503 -81.7485
rradius 36.0774
rwrist -13.8207
rhand -20.8152 12.7044
rfingers 7.12502
rthumb 5.55279 -17.2029
lclavicle 2.48481e-015 3.18055e-015
lhumerus -31.7298 3.46569 84.9536
lradius 33.9371
lwrist 6.681
lhand -18.2293 22.4149
lfingers 7.12502
lthumb 8.04906 52.2416
rfemur -34.5546 -8.44423 17.1902
rtibia 87.2073
rfoot -5.62045 -1.76737
rtoes 11.7275
lfemur -7.13378 -3.08401 -25.7158
ltibia 20.2724
lfoot -9.3499 -6.50574
ltoes 21.8391
